<svg version="1.1" xmlns="http://www.w3.org/2000/svg" xmlns:xlink="http://www.w3.org/1999/xlink" style="" xml:space="preserve" width="30" height="20"><rect id="backgroundrect" width="100%" height="100%" x="0" y="0" fill="none" stroke="none" style="" class=""/>
















<g class="currentLayer" style=""><title>Layer 1</title><g id="svg_1" class="" fill="#ffffff" fill-opacity="1" transform="rotate(0.943411, 15.0008, 9.90082)">
	<g id="svg_2" fill="#ffffff" fill-opacity="1">
		<g id="svg_3" fill="#ffffff" fill-opacity="1">
			<path d="M12.534320445498452,9.048711456358433 c0.5780459046363831,-0.29624614119529724 1.015062689781189,-0.6261969804763794 1.3145322799682617,-0.9827566146850586 c0.5327772498130798,-0.6421622633934021 0.795683741569519,-1.4936481714248657 0.795683741569519,-2.54913592338562 c0,-1.0271048545837402 -0.26290643215179443,-1.9052000045776367 -0.7887192964553833,-2.6413803100585938 c-0.877515435218811,-1.1991760730743408 -2.362675905227661,-1.812955379486084 -4.462445259094238,-1.844886064529419 H1.0743843035306782 v17.301130294799805 h7.75661039352417 c0.8740332126617432,0 1.6836459636688232,-0.07627895474433899 2.4323196411132812,-0.23238471150398254 c0.7486739158630371,-0.15787971019744873 1.3963639736175537,-0.4470301568508148 1.9448109865188599,-0.8692251443862915 c0.4875086545944214,-0.3672032952308655 0.8949265480041504,-0.8231029510498047 1.2187714576721191,-1.3606036901474 c0.5118840932846069,-0.8124594688415527 0.7678260803222656,-1.7331286668777466 0.7678260803222656,-2.7584598064422607 c0,-0.9934003949165344 -0.22460216283798218,-1.8395639657974243 -0.6703243255615234,-2.534944772720337 C14.073455424746498,9.8806826248765 13.411838145693764,9.371559776365757 12.534320445498452,9.048711456358433 zM4.506099791964516,4.035584606230259 h3.746851682662964 c0.8235413432121277,0 1.5025711059570312,0.09047038108110428 2.035348415374756,0.26963719725608826 c0.6163502335548401,0.2607675790786743 0.9245253801345825,0.7911723852157593 0.9245253801345825,1.6000840663909912 c0,0.7255370020866394 -0.2350488156080246,1.2328804731369019 -0.6999230980873108,1.5184831619262695 c-0.4683564603328705,0.2856025993824005 -1.0760010480880737,0.4292908310890198 -1.821192979812622,0.4292908310890198 H4.506099791964516 V4.035584606230259 zM10.43106517358683,15.025079406797886 c-0.41438230872154236,0.20400182902812958 -0.9976515173912048,0.30511581897735596 -1.744584321975708,0.30511581897735596 H4.506099791964516 v-4.61398983001709 h4.237843036651611 c0.7382273077964783,0.00532178720459342 1.3127909898757935,0.10466182976961136 1.7236912250518799,0.2909243702888489 c0.7312629222869873,0.3370465338230133 1.0951532125473022,0.9543738961219788 1.0951532125473022,1.8573037385940552 C11.562782855471596,13.928786911070347 11.186709971865639,14.645456947386265 10.43106517358683,15.025079406797886 z" id="svg_4" fill="#ffffff" fill-opacity="1"/>
			<rect x="18.875413610812117" y="1.8376863083696653" width="7.3770501024368125" height="2.153549817451124" id="svg_5" fill="#ffffff" fill-opacity="1"/>
			<path d="M28.815370173892006,10.336579002439976 c-0.15321698784828186,-1.0022697448730469 -0.49099084734916687,-1.8839126825332642 -1.0168038606643677,-2.644928216934204 c-0.5763048529624939,-0.8621295690536499 -1.307567834854126,-1.4936481714248657 -2.1972708702087402,-1.8927823305130005 c-0.8862210512161255,-0.400907963514328 -1.8838727474212646,-0.6013618111610413 -2.9946956634521484,-0.5995880365371704 c-1.8647202253341675,0 -3.3794796466827393,0.5942661762237549 -4.551241874694824,1.7739288806915283 c-1.1682794094085693,1.183210849761963 -1.7532899379730225,2.884408712387085 -1.7532899379730225,5.1018195152282715 c0,2.364647388458252 0.6459489464759827,4.072941780090332 1.9448109865188599,5.121334075927734 c1.2936389446258545,1.050166130065918 2.7875044345855713,1.5734751224517822 4.483337879180908,1.5734751224517822 c2.0527594089508057,0 3.649350166320801,-0.6226491332054138 4.789772033691406,-1.8643994331359863 c0.7295218706130981,-0.7840766310691833 1.1421631574630737,-1.5557358264923096 1.2327004671096802,-2.3132035732269287 H25.354053111514077 c-0.19674456119537354,0.37429895997047424 -0.4248289465904236,0.6669972538948059 -0.6859942674636841,0.8798688054084778 c-0.4735798239707947,0.3902643620967865 -1.0899299383163452,0.5853965878486633 -1.8455679416656494,0.5853965878486633 c-0.7190752029418945,0 -1.3284610509872437,-0.1614275425672531 -1.8368626832962036,-0.48250871896743774 c-0.8392112255096436,-0.5144394040107727 -1.277969241142273,-1.4155954122543335 -1.3336843252182007,-2.698146343231201 h9.274852752685547 C28.940726848086342,11.771691955626011 28.905904384097084,10.921979583799839 28.815370173892006,10.336579002439976 zM19.735517116030678,10.668305076658726 c0.12187716364860535,-0.8319727778434753 0.41786453127861023,-1.49187433719635 0.8879621028900146,-1.979704737663269 c0.4700976312160492,-0.48605653643608093 1.135198712348938,-0.7308588027954102 1.9865975379943848,-0.7326326966285706 c0.7852370142936707,0 1.4416327476501465,0.2288368046283722 1.9761509895324707,0.6882844567298889 c0.5275539755821228,0.4629955291748047 0.8252824544906616,1.1353144645690918 0.8862210512161255,2.024052858352661 H19.735517116030678 z" id="svg_6" fill="#ffffff" fill-opacity="1"/>
		</g>
	</g>
</g><g id="svg_7" class="" fill="#ffffff" fill-opacity="1">
</g><g id="svg_8" class="" fill="#ffffff" fill-opacity="1">
</g><g id="svg_9" class="" fill="#ffffff" fill-opacity="1">
</g><g id="svg_10" class="" fill="#ffffff" fill-opacity="1">
</g><g id="svg_11" class="" fill="#ffffff" fill-opacity="1">
</g><g id="svg_12" class="" fill="#ffffff" fill-opacity="1">
</g><g id="svg_13" class="" fill="#ffffff" fill-opacity="1">
</g><g id="svg_14" class="" fill="#ffffff" fill-opacity="1">
</g><g id="svg_15" class="" fill="#ffffff" fill-opacity="1">
</g><g id="svg_16" class="" fill="#ffffff" fill-opacity="1">
</g><g id="svg_17" class="" fill="#ffffff" fill-opacity="1">
</g><g id="svg_18" class="" fill="#ffffff" fill-opacity="1">
</g><g id="svg_19" class="" fill="#ffffff" fill-opacity="1">
</g><g id="svg_20" class="" fill="#ffffff" fill-opacity="1">
</g><g id="svg_21" class="" fill="#ffffff" fill-opacity="1">
</g></g></svg>