<svg xmlns="http://www.w3.org/2000/svg" viewBox="0 0 35 43" width="35" height="43">
	<style>
		tspan { white-space:pre }
		.shp0 { fill: #464646 } 
	</style>
	<g id="Static-blocks">
		<g id="Fastest Shipping">
			<path id="rocket" class="shp0" d="M27.78 39.17C27.78 39.17 28.22 36.86 25.48 34.05C28.15 27.58 28.52 21.7 28.52 21.7C28.52 21.7 34 22.78 34 27.46C34 35.46 27.78 39.17 27.78 39.17ZM12.67 36.36C12.67 36.36 9 26.18 9 21.95C9 20.06 9.24 18.36 9.63 16.83L26.36 16.83C26.74 18.37 26.99 20.06 26.99 21.96C26.99 26.12 23.33 36.36 23.33 36.36L12.67 36.36ZM17.99 19.16C16.11 19.16 14.58 20.48 14.58 22.1C14.58 23.73 16.11 25.05 17.99 25.05C19.87 25.05 21.39 23.73 21.39 22.1C21.39 20.48 19.87 19.16 17.99 19.16ZM17.25 6.01L17.25 2L18.58 2L18.58 5.91C20.1 6.86 24.2 9.89 26.05 15.73L9.93 15.73C11.72 10.05 15.62 7.05 17.25 6.01ZM8.22 39.17C8.22 39.17 2 35.46 2 27.46C2 22.78 7.48 21.7 7.48 21.7C7.48 21.7 7.85 27.58 10.52 34.05C7.78 36.86 8.22 39.17 8.22 39.17ZM20.24 39.76L19.13 38.8L17.95 42L16.54 38.8L15.58 40.46L14.17 37.45L21.8 37.45L20.24 39.76Z" />
		</g>
	</g>
</svg>